<svg width="150" height="42" viewBox="0 0 150 42" fill="none" xmlns="http://www.w3.org/2000/svg">
<g clip-path="url(#clip0_103_850)">
<path d="M138.56 22.0331L140.88 15.9584L143.2 22.0331H138.56ZM143.28 12.5101H138.48L131.76 29.0099H135.92L137.44 24.9802H144.3L145.84 29.0099H150L143.28 12.5101ZM109.38 26.1229C106.66 26.1229 104.48 23.677 104.48 20.6497C104.48 17.6224 106.68 15.1765 109.38 15.1765C112.08 15.1765 114.28 17.6224 114.28 20.6497C114.3 23.677 112.1 26.1229 109.38 26.1229ZM109.38 11.9287C104.58 11.9287 100.68 15.8381 100.68 20.6497C100.68 25.4613 104.58 29.3707 109.38 29.3707C114.18 29.3707 118.08 25.4814 118.08 20.6698C118.08 15.8381 114.18 11.9287 109.38 11.9287ZM75.08 26.1229C72.38 26.1229 70.18 23.677 70.18 20.6497C70.18 17.6224 72.38 15.1765 75.08 15.1765C77.8 15.1765 80 17.6224 80 20.6497C80 23.677 77.8 26.1229 75.08 26.1229ZM75.08 11.9287C70.28 11.9287 66.4 15.8381 66.4 20.6497C66.4 25.4613 70.28 29.3707 75.08 29.3707C79.88 29.3707 83.78 25.4814 83.78 20.6698C83.78 15.8381 79.88 11.9287 75.08 11.9287ZM96.58 12.5101L92.32 19.1862L88.06 12.5101H83.9L90.5 22.855V29.0099H94.16V22.855L100.76 12.5101C100.74 12.5101 96.58 12.5101 96.58 12.5101ZM132.64 12.5101H118.58V15.6777H123.8V29.0099H127.46V15.6577H132.64V12.5101ZM51.56 15.6577H56.78V28.9898H60.44V15.6577H65.62V12.5101H51.54V15.6577H51.56Z" fill="black"/>
<path d="M41.26 0H0V41.3597H41.26V0Z" fill="#EB0A1E"/>
<path d="M27.5 11.6882C25.58 11.0667 23.2 10.7058 20.62 10.7058C18.04 10.7058 15.66 11.0667 13.74 11.6882C8.64 13.3321 5.14 16.7404 5.14 20.6698C5.14 26.2032 12.06 30.694 20.6 30.694C29.14 30.694 36.06 26.2032 36.06 20.6698C36.1 16.7404 32.6 13.3321 27.5 11.6882ZM20.62 26.4036C19.34 26.4036 18.3 23.8976 18.24 20.73C19 20.7901 19.8 20.8302 20.62 20.8302C21.44 20.8302 22.22 20.7901 23 20.73C22.94 23.8775 21.9 26.4036 20.62 26.4036ZM18.4 18.244C18.74 16.0186 19.6 14.4548 20.62 14.4548C21.62 14.4548 22.48 16.0186 22.84 18.244C22.14 18.3041 21.38 18.3442 20.62 18.3442C19.86 18.3442 19.12 18.3242 18.4 18.244ZM24.2 18.0836C23.68 14.5952 22.28 12.1092 20.62 12.1092C18.96 12.1092 17.56 14.5952 17.04 18.0836C13.9 17.5824 11.7 16.4797 11.7 15.1766C11.7 13.4123 15.68 11.9889 20.6 11.9889C25.52 11.9889 29.5 13.4123 29.5 15.1766C29.54 16.4797 27.34 17.6024 24.2 18.0836ZM7.42 20.309C7.42 18.6048 8.08 17.021 9.2 15.6577C9.18 15.758 9.18 15.8582 9.18 15.9384C9.18 18.0836 12.38 19.8879 16.84 20.5495C16.84 20.7099 16.84 20.8703 16.84 21.0307C16.84 25.0003 17.94 28.3684 19.46 29.5312C12.7 29.1302 7.42 25.1606 7.42 20.309ZM21.8 29.5312C23.32 28.3684 24.42 25.0003 24.42 21.0307C24.42 20.8703 24.42 20.7099 24.42 20.5495C28.88 19.8879 32.08 18.0635 32.08 15.9384C32.08 15.8382 32.08 15.7379 32.06 15.6577C33.2 17.021 33.84 18.6249 33.84 20.309C33.84 25.1606 28.54 29.1302 21.8 29.5312Z" fill="white"/>
</g>
<defs>
<clipPath id="clip0_103_850">
<rect width="150" height="41.5" fill="white"/>
</clipPath>
</defs>
</svg>
