<svg width="150" height="56" viewBox="0 0 150 56" fill="none" xmlns="http://www.w3.org/2000/svg">
<g clip-path="url(#clip0_103_867)">
<path d="M74.9923 0.000976562C33.359 0.000976562 -0.00775146 12.418 -0.00775146 27.9945C-0.00775146 43.48 33.6332 55.988 74.9923 55.988C116.351 55.988 149.992 43.428 149.992 27.9945C149.992 12.561 116.351 0.000976562 74.9923 0.000976562Z" fill="#003478"/>
<path d="M104.533 33.9364C104.559 34.0664 104.715 34.1834 104.885 34.2484C104.95 34.2744 104.977 34.3135 104.911 34.4435C104.441 35.4446 104.01 36.0167 103.436 36.8749C102.9 37.681 102.286 38.3051 101.555 38.9032C100.445 39.8133 98.904 40.8145 97.6372 40.1384C97.0757 39.8523 96.8276 39.0592 96.8406 38.4221C96.8667 36.6278 97.6634 34.7945 99.1521 32.9872C100.954 30.7769 102.952 29.6327 104.258 30.2568C105.617 30.8939 105.186 32.4541 104.572 33.6893C104.52 33.7674 104.52 33.8584 104.533 33.9364ZM119.055 19.9721C119.146 19.8031 119.055 19.6731 118.833 19.6731C117.696 19.6731 116.221 19.6731 115.045 19.6731C114.771 19.6731 114.614 19.7121 114.484 19.9721C114.053 20.8043 108.751 28.7095 107.771 30.2438C107.602 30.4778 107.406 30.4388 107.38 30.1788C107.275 29.2686 106.491 28.2155 105.238 27.7214C104.284 27.3443 103.357 27.2663 102.391 27.3963C100.654 27.6304 99.0999 28.5405 97.7287 29.5807C95.6783 31.1409 93.9023 33.1563 91.6038 34.6515C90.3501 35.4576 88.6393 36.1727 87.4901 35.1196C86.4584 34.1574 86.5759 32.0381 88.1561 30.3868C88.3259 30.2178 88.5218 30.3608 88.4957 30.5168C88.352 31.258 88.5349 31.9991 89.0964 32.5192C89.7886 33.1433 90.7811 33.2083 91.6299 32.7922C92.6355 32.2981 93.2232 31.349 93.3929 30.2698C93.6541 28.5925 92.3612 27.1103 90.7419 26.9933C89.4229 26.9023 88.1561 27.3573 86.9285 28.3715C86.3148 28.8786 85.9621 29.2556 85.4267 30.0098C85.2961 30.1918 85.1002 30.2178 85.1002 29.9447C85.1655 27.7994 84.2644 26.5902 82.4884 26.5512C81.1041 26.5122 79.6284 27.2663 78.4661 28.1765C77.1993 29.1906 76.1023 30.5298 74.9139 31.791C74.7703 31.9471 74.6397 31.9341 74.6005 31.635C74.5613 30.2178 74.2087 28.8266 73.5427 27.8514C73.3076 27.5134 72.8114 27.3443 72.4065 27.5784C72.2106 27.6824 71.5446 27.9814 71.0614 28.3715C70.8263 28.5665 70.7219 28.8526 70.8394 29.2166C71.4793 31.349 71.3356 33.7544 70.4737 35.8087C69.6771 37.681 68.1361 39.3713 66.3078 39.9304C65.1063 40.3074 63.8657 40.1254 63.0952 39.0722C62.0374 37.616 62.4683 35.0806 64.0355 32.9742C65.4328 31.1149 67.444 29.9447 69.442 29.1776C69.6771 29.0866 69.7293 28.9306 69.664 28.7356C69.5596 28.4105 69.3767 27.9554 69.3114 27.7604C69.1286 27.2663 68.6062 27.1883 67.9794 27.2663C66.5167 27.4353 65.2108 27.9294 63.9049 28.6315C60.4964 30.4518 58.7986 33.9624 58.0412 35.8347C57.6755 36.7318 57.3752 37.3039 56.9703 37.798C56.4349 38.4741 55.7558 39.0852 54.5282 40.1514C54.4107 40.2554 54.3323 40.4504 54.4238 40.6455C54.5544 40.9055 55.1943 41.8027 55.3771 41.8807C55.573 41.9847 55.8081 41.8417 55.8995 41.7766C56.7614 41.1916 57.7931 40.2684 58.3024 39.6443C58.4852 39.4363 58.655 39.5143 58.7595 39.8393C59.2296 41.5166 60.4572 42.8818 62.168 43.4539C65.2892 44.5071 68.5279 42.9858 70.97 40.3464C72.524 38.6691 73.0856 37.59 73.6733 36.8489C74.6788 35.6007 76.6769 32.8182 79.0407 31.0369C79.9157 30.3738 80.9343 29.8797 81.4567 30.2048C81.8746 30.4778 82.0052 31.0889 81.3391 32.2981C78.9231 36.6928 75.371 41.8547 74.718 43.1029C74.6005 43.3239 74.705 43.4929 74.927 43.4929C76.1937 43.4929 77.4474 43.4929 78.5967 43.4929C78.7926 43.4799 78.8709 43.4019 78.9754 43.2589C80.8298 40.3724 82.5798 37.616 84.4473 34.7685C84.5517 34.5995 84.6432 34.7295 84.6562 34.8075C84.6954 35.4706 84.8521 36.3678 85.2569 36.9659C85.9622 38.0581 86.9677 38.5261 88.0778 38.5391C88.9658 38.5521 89.4098 38.4091 90.3632 38.0581C91.1337 37.772 91.7605 37.3949 92.2437 37.0569C92.518 36.8619 92.5702 37.1869 92.5702 37.2389C92.1392 39.5273 92.6747 42.2577 94.9601 43.3759C97.7025 44.7151 100.706 42.8298 102.443 41.1265C102.613 40.9575 102.796 40.9835 102.809 41.3346C102.848 41.9847 103.135 42.7648 103.684 43.2979C105.133 44.7541 108.072 44.169 111.01 41.9067C112.904 40.4504 114.876 38.4091 116.652 36.2378C116.717 36.1597 116.769 36.0167 116.639 35.8867C116.364 35.6007 115.973 35.2756 115.698 35.0286C115.581 34.9245 115.398 34.9506 115.294 35.0286C113.465 36.7578 111.82 38.7342 109.443 40.3724C108.646 40.9315 107.366 41.3736 106.792 40.6065C106.57 40.3074 106.596 39.8913 106.818 39.3453C107.497 37.59 118.48 20.9473 119.055 19.9721Z" fill="white"/>
<path d="M67.3786 21.9745C67.4309 22.2215 67.5223 22.2735 67.6398 22.2475C68.2014 22.1305 68.8152 21.6754 69.1678 21.1424C69.4943 20.6613 69.651 19.9722 69.3245 19.6861C69.0372 19.4391 68.554 19.5041 68.2014 19.8162C67.4962 20.4403 67.2872 21.3244 67.3786 21.9745ZM39.3793 43.4149C35.2787 43.4409 31.6743 40.9185 31.2564 36.5628C31.0213 34.1445 31.7135 31.9861 33.0847 30.2178C34.2992 28.6316 36.3626 27.3184 38.1126 27.0063C38.6872 26.9023 39.4446 26.9673 39.7581 27.3444C40.2543 27.9165 40.1107 28.5536 39.6144 28.8006C38.2823 29.4767 36.676 30.6339 35.8925 32.2201C35.2526 33.5074 35.122 35.0676 36.1014 36.5498C37.7469 39.0202 42.3307 39.0852 46.5881 35.1456C47.6459 34.1835 48.5862 33.2473 49.5526 32.1551C51.4331 30.0228 52.06 29.2427 54.5543 25.7971C54.5804 25.7581 54.5935 25.7061 54.5804 25.6801C54.5543 25.6281 54.5282 25.6281 54.4498 25.6151C52.7782 25.6671 51.3287 26.1612 49.9182 27.2013C49.5134 27.5004 48.9257 27.4614 48.6645 27.0713C48.3772 26.6292 48.5862 26.0572 49.0563 25.7321C51.3287 24.1588 53.8099 23.8728 56.3435 23.4437C56.3435 23.4437 56.5132 23.4567 56.6699 23.2617C57.7147 21.9355 58.4983 20.7393 59.6083 19.3871C60.7314 18.0219 62.1679 16.7737 63.2649 15.8245C64.8059 14.5113 65.7854 14.0692 66.791 13.5231C67.0521 13.3801 66.7518 13.2241 66.6734 13.2241C61.071 12.1709 55.2465 10.8187 49.6962 12.873C45.8437 14.3033 44.1591 17.3458 44.9687 19.3741C45.5434 20.8173 47.45 21.0513 49.2392 20.1802C50.7149 19.4521 52.0861 18.2949 53.0656 16.7997C53.6141 15.9675 54.7502 16.5656 54.1364 18.0089C52.504 21.8185 49.3959 24.835 45.6087 24.965C42.383 25.069 40.3065 22.7026 40.3065 19.7901C40.3196 14.0432 46.7448 10.2596 53.4965 9.70053C61.6325 9.03742 69.3245 11.1828 77.3952 12.1579C83.5853 12.899 89.5143 12.925 95.7305 11.4948C96.4619 11.3388 96.9842 11.8069 96.932 12.548C96.8667 13.6142 96.044 14.6413 93.9936 15.7595C91.6691 17.0337 89.227 17.4108 86.6804 17.4368C80.5294 17.4888 74.7964 15.0964 68.8674 13.8222C68.8805 14.0822 68.9458 14.3943 68.7238 14.5503C65.4328 16.9687 62.4683 19.4131 60.4833 22.8586C60.418 22.9367 60.4441 23.0147 60.5747 23.0017C62.2985 22.9106 63.8526 22.8716 65.472 22.7416C65.7593 22.7156 65.7593 22.6506 65.7332 22.4426C65.5895 21.2594 65.9421 19.9072 66.9869 18.971C68.0577 18.0089 69.4028 17.9048 70.2909 18.594C71.2965 19.3741 71.2181 20.7913 70.6565 21.8445C70.095 22.9237 69.1678 23.4957 68.2667 23.7688C68.2667 23.7688 68.0838 23.8078 68.11 23.9768C68.1491 24.2499 69.3637 24.926 69.4681 25.095C69.5726 25.264 69.5204 25.5241 69.3375 25.7321C69.2069 25.8751 69.0111 26.0181 68.7499 26.0181C68.5409 26.0181 68.4103 25.9401 68.1491 25.7971C67.6006 25.4981 66.9216 25.017 66.4645 24.4449C66.3078 24.2499 66.2294 24.2499 65.8376 24.2629C64.0877 24.3669 61.3713 24.6269 59.5299 24.848C59.0859 24.9 59.0206 24.991 58.9292 25.134C55.9909 29.9578 52.8566 35.1586 49.4089 38.6432C45.7131 42.4008 42.6442 43.3889 39.3793 43.4149Z" fill="white"/>
<path d="M74.9923 4.57765C36.6891 4.57765 5.64698 15.1093 5.64698 28.0074C5.64698 40.9055 36.6891 51.4372 74.9923 51.4372C113.282 51.4372 144.325 40.9055 144.325 28.0074C144.325 15.1223 113.282 4.57765 74.9923 4.57765ZM74.9923 53.5695C35.3048 53.5695 3.12653 42.1277 3.12653 28.0204C3.12653 13.9002 35.3048 2.47131 74.9923 2.47131C114.68 2.47131 146.858 13.9132 146.858 28.0204C146.858 42.1277 114.68 53.5695 74.9923 53.5695Z" fill="white"/>
</g>
<defs>
<clipPath id="clip0_103_867">
<rect width="150" height="56" fill="white"/>
</clipPath>
</defs>
</svg>
