<svg width="55" height="55" viewBox="0 0 55 55" fill="none" xmlns="http://www.w3.org/2000/svg">
<g clip-path="url(#clip0_103_873)">
<path d="M54.4107 27.4999C54.4107 42.3794 42.3795 54.4107 27.5 54.4107C12.6205 54.4107 0.589279 42.3794 0.589279 27.4999C0.589279 12.6205 12.6205 0.589233 27.5 0.589233C42.3795 0.589233 54.4107 12.6205 54.4107 27.4999ZM27.5 2.25888C13.5045 2.25888 2.25892 13.5044 2.25892 27.5491C2.25892 41.5937 13.6027 52.7901 27.5 52.7901C41.4955 52.7901 52.7411 41.4464 52.7411 27.5491C52.7411 13.5044 41.4955 2.25888 27.5 2.25888Z" fill="url(#paint0_linear_103_873)"/>
<path d="M27.5 2.25891C13.5045 2.25891 2.25893 13.5044 2.25893 27.5491C2.25893 41.5937 13.6027 52.7902 27.5 52.7902C41.4955 52.7902 52.7411 41.4464 52.7411 27.5491C52.7411 13.5044 41.4955 2.25891 27.5 2.25891ZM27.5 51.1205C14.4375 51.1205 3.87946 40.5625 3.87946 27.5C3.87946 14.4375 14.4375 3.87945 27.5 3.87945C40.5625 3.87945 51.1205 14.4375 51.1205 27.5C51.1205 40.5625 40.5625 51.1205 27.5 51.1205Z" fill="url(#paint1_linear_103_873)"/>
<path opacity="0.4" d="M27.5 54.4107C42.3795 54.4107 54.4107 42.3795 54.4107 27.5C54.4107 12.6205 42.3795 0.589286 27.5 0.589286C12.6205 0.589286 0.589284 12.6205 0.589284 27.5C0.589284 42.3795 12.6205 54.4107 27.5 54.4107ZM27.5 0C42.625 0 55 12.375 55 27.5C55 42.625 42.625 55 27.5 55C12.375 55 0 42.625 0 27.5C0 12.375 12.375 0 27.5 0Z" fill="url(#paint2_linear_103_873)"/>
<path d="M1.86607 27.5982C1.86607 13.5044 13.308 1.91516 27.5 1.91516C41.692 1.91516 53.1339 13.4062 53.1339 27.5982C53.1339 41.6919 41.692 53.1339 27.5 53.1339C13.308 53.1339 1.86607 41.6919 1.86607 27.5982ZM9.87054 9.87052C5.30357 14.4375 2.45536 20.6741 2.45536 27.5491C2.45536 34.4241 5.30357 40.7098 9.77232 45.1786C14.3393 49.6473 20.5759 52.4955 27.4509 52.4955C34.3259 52.4955 40.6116 49.7455 45.0804 45.1786C49.6473 40.7098 52.3973 34.4241 52.3973 27.5491C52.3973 20.6741 49.5491 14.3884 45.0804 9.87052C40.6607 5.35266 34.375 2.50445 27.5 2.50445C20.625 2.50445 14.3393 5.35266 9.87054 9.87052Z" fill="white"/>
<path opacity="0.4" d="M27.5 51.2188C21.1161 51.2188 15.2232 48.7143 10.7545 44.2455C6.28572 39.7768 3.78125 33.8348 3.78125 27.5C3.78125 21.1652 6.28572 15.2232 10.7545 10.7545C15.2232 6.28571 21.1161 3.78125 27.5 3.78125C33.8839 3.78125 39.7768 6.28571 44.2455 10.7545C48.7143 15.2232 51.2188 21.1161 51.2188 27.5C51.2188 33.8839 48.7143 39.7768 44.2455 44.2455C39.7768 48.7143 33.8348 51.2188 27.5 51.2188ZM27.5 50.5313C33.5893 50.5313 39.433 48.125 43.7545 43.8036C48.125 39.433 50.4821 33.6384 50.4821 27.5491C50.4821 21.4598 48.0759 15.6161 43.7545 11.2946C39.3839 6.97321 33.5893 4.61607 27.5 4.61607C21.4107 4.61607 15.567 7.02232 11.2455 11.3438C6.875 15.567 4.46875 21.4107 4.46875 27.5C4.46875 33.5893 6.875 39.433 11.1964 43.7545C15.567 48.125 21.4107 50.5313 27.5 50.5313Z" fill="url(#paint3_linear_103_873)"/>
<path d="M48.3705 38.6964C47.9286 38.3527 31.3304 25.192 31.3304 25.192L27.4509 3.09375C27.2054 3.19196 26.8616 3.4375 26.6652 3.78125L23.9152 25.2902L6.875 38.4018C6.875 38.4018 6.53125 38.8437 6.33482 39.0893C6.23661 39.2366 6.2366 39.5312 6.2366 39.7768L27.3527 31.0848L48.4687 39.7768C48.7143 39.3839 48.567 38.942 48.3705 38.6964Z" fill="white"/>
<path d="M27.6473 28.1875L27.5 32.1161L46.9464 39.9241C47.6339 40.2678 48.125 40.0714 48.6652 39.7768L27.942 28.0893C27.8437 27.9911 27.6473 28.0893 27.6473 28.1875Z" fill="#565F64"/>
<path d="M27.6473 28.1875C27.6473 28.1875 28.7768 30.1518 30.0536 31.5268C31.8705 33.491 34.2768 34.8661 34.2768 34.8661L46.8973 39.9241C47.5848 40.2678 48.0759 40.0714 48.6161 39.7768L27.8929 28.0893C27.8438 27.9911 27.6473 28.0893 27.6473 28.1875Z" fill="url(#paint4_linear_103_873)"/>
<path d="M48.567 38.991C48.567 38.8928 48.4687 38.8437 48.4196 38.6473L30.692 25.683L28.2857 27.2053C28.2857 27.2053 28.433 27.3035 28.5312 27.2053C28.7768 27.1071 29.317 27.058 29.808 27.2053C30.25 27.4017 48.567 39.0892 48.567 39.0892C48.567 39.0892 48.567 39.0892 48.567 38.991Z" fill="#A4AAAE" fill-opacity="0.6"/>
<path d="M47.9777 38.2545L31.4777 25.192L30.692 25.6831L48.4196 38.7456C48.2723 38.5983 48.125 38.4018 47.9777 38.2545Z" fill="#333E46"/>
<path d="M27.942 26.9108C27.8437 27.009 27.8437 27.009 27.8437 27.009C27.8437 27.009 27.8437 27.1563 27.9911 27.1072C28.0893 27.009 30.5446 25.7322 31.4286 25.2411L28.433 4.61612C28.3839 3.7813 27.9911 3.43755 27.4018 3.19202L27.7455 27.1072L27.942 26.9108Z" fill="#565F64"/>
<path d="M26.4688 4.56695V5.69641L24.5536 24.6518C24.5536 24.8973 24.6518 25.1919 24.8973 25.3393L26.0268 26.2232L26.8125 5.25445L26.9107 3.63391C26.6161 3.78123 26.567 4.12498 26.4688 4.56695Z" fill="#A4AAAE" fill-opacity="0.6"/>
<path d="M25.4375 26.5669L24.4062 25.683L6.97321 38.3035C6.97321 38.3035 6.48214 38.6473 6.38393 38.991L6.97321 38.6473L25.2902 27.1071C25.6339 27.0089 25.683 26.8124 25.4375 26.5669Z" fill="#A4AAAE" fill-opacity="0.6"/>
<path d="M27.2545 28.1875C27.2545 28.0893 27.1563 27.9911 27.1071 28.0893L6.33482 39.875C6.8259 40.2187 7.36607 40.3169 8.05357 40.0714L27.4509 32.2634L27.2545 28.1875Z" fill="#565F64"/>
<path d="M27.8438 27.0089L27.942 26.9107C27.8437 27.0089 27.8438 27.0089 27.8438 27.0089C27.8438 27.0089 27.8437 27.1071 27.942 27.1071H28.0402C28.1384 27.0089 30.5938 25.7321 31.4777 25.241L31.1339 22.7366L28.4821 4.61604C28.4821 4.27229 28.3839 4.02675 28.2366 3.83032C28.2366 3.83032 29.5134 21.1651 29.5134 23.0803C29.4643 25.5357 27.8438 27.0089 27.8438 27.0089Z" fill="url(#paint5_linear_103_873)"/>
<path d="M27.2545 28.1875C27.2545 28.0893 27.1563 27.9911 27.1071 28.0893L6.33482 39.875C6.8259 40.2187 7.36607 40.3169 8.05357 40.0714L27.4509 32.2634L27.2545 28.1875Z" fill="url(#paint6_linear_103_873)" fill-opacity="0.8"/>
<path opacity="0.8" d="M8.00447 39.9732L27.4018 32.1652L27.2054 28.3839C26.8616 29.4152 26.2723 30.5446 24.6518 31.3794C23.4732 32.0669 11.933 37.7143 7.80804 39.7277C7.5625 39.875 7.21875 39.9732 7.02232 40.0714C7.36607 40.2187 7.66072 40.1205 8.00447 39.9732Z" fill="url(#paint7_linear_103_873)"/>
<path d="M27.942 26.9108C27.8437 27.009 27.8437 27.009 27.8437 27.009C27.8437 27.009 27.8437 27.1563 27.9911 27.1072C28.0893 27.009 30.5446 25.7322 31.4286 25.2411L28.433 4.61612C28.3839 3.7813 27.9911 3.43755 27.4018 3.19202L27.7455 27.1072L27.942 26.9108Z" fill="url(#paint8_linear_103_873)"/>
<path d="M27.942 26.9108C27.8437 27.009 27.8437 27.009 27.8437 27.009C27.8437 27.009 27.8437 27.1563 27.9911 27.1072C28.0893 27.009 30.5446 25.7322 31.4286 25.2411L28.433 4.61612C28.3839 3.7813 27.9911 3.43755 27.4018 3.19202L27.7455 27.1072L27.942 26.9108Z" fill="url(#paint9_linear_103_873)"/>
<path d="M4.37053 38.1562C3.78125 36.7812 0.343746 30.1027 4.125 17.1875H2.65178C1.86607 19.7411 1.27678 21.3125 0.933031 23.6205C0.933031 23.6205 0.736603 24.5045 0.687496 25.4375C0.589281 26.3705 0.589279 26.9107 0.589279 27.5C0.589279 32.6563 1.86607 35.6518 1.86607 35.6518C3.24107 39.9732 5.64732 43.8036 8.93749 46.75C11.7857 49.2545 16.1562 51.1205 19.7411 51.808C19.1518 51.7098 8.83928 47.3393 4.37053 38.1562Z" fill="url(#paint10_linear_103_873)"/>
<path d="M27.8437 27.9911H27.058C27.1562 27.9911 27.2054 27.9911 27.2054 28.0893L27.4018 32.067H27.5L27.6473 28.0893C27.6473 27.9911 27.7455 27.942 27.8437 27.9911Z" fill="url(#paint11_linear_103_873)"/>
<path d="M36.0937 1.96423C45.1295 5.40173 53.625 14.8303 53.625 26.8124C53.625 41.2499 42.1339 53.0357 27.5 53.0357V54.4107C42.1339 54.4107 54.4107 42.3794 54.4107 27.4999C54.4107 15.6651 46.8482 5.69638 36.0937 1.96423Z" fill="url(#paint12_linear_103_873)"/>
<path d="M50.5313 17.3348C44.5402 3.53566 30.9375 2.74995 30.1518 2.65173C30.1518 2.65173 30.1518 2.65173 30.0536 2.65173C40.4643 4.56691 47.0938 11.3437 49.4018 18.4642V18.5624C50.433 21.3124 50.9732 24.2098 51.0223 27.4017C51.1205 30.3973 50.433 33.7857 49.1563 36.8303C49.058 37.2723 49.0089 37.7633 48.9107 37.7633H50.2857C54.4107 30.0535 52.5938 22.2455 50.5313 17.3348Z" fill="url(#paint13_linear_103_873)"/>
<path d="M1.86607 27.5982C1.86607 13.5044 13.308 1.91516 27.5 1.91516C41.692 1.91516 53.1339 13.4062 53.1339 27.5982C53.1339 41.6919 41.692 53.1339 27.5 53.1339C13.308 53.1339 1.86607 41.6919 1.86607 27.5982ZM9.87054 9.87052C5.30357 14.4375 2.45536 20.6741 2.45536 27.5491C2.45536 34.4241 5.30357 40.7098 9.77232 45.1786C14.3393 49.6473 20.5759 52.4955 27.4509 52.4955C34.3259 52.4955 40.6116 49.7455 45.0804 45.1786C49.6473 40.7098 52.3973 34.4241 52.3973 27.5491C52.3973 20.6741 49.5491 14.3884 45.0804 9.87052C40.6607 5.35266 34.375 2.50445 27.5 2.50445C20.625 2.50445 14.3393 5.35266 9.87054 9.87052Z" fill="#FBFBFB"/>
<path d="M6.77678 38.5L24.308 25.8795C25.2411 26.3705 26.8125 27.1071 26.9598 27.1071C27.1071 27.2054 27.1071 27.0089 27.1071 27.0089L24.9464 25.192C24.7009 24.9955 24.6027 24.75 24.6027 24.5045L26.6652 3.78125C26.567 3.87946 26.567 4.02679 26.5179 4.125C26.4196 4.32143 26.4196 4.37054 26.4196 4.56696L23.4241 25.2902L6.9241 38.2545C6.87499 38.3527 6.77678 38.4018 6.77678 38.5Z" fill="#333F47"/>
</g>
<defs>
<linearGradient id="paint0_linear_103_873" x1="6.87158" y1="10.2236" x2="48.1284" y2="44.7773" gradientUnits="userSpaceOnUse">
<stop stop-color="white"/>
<stop offset="0.1" stop-color="#CDD0D0"/>
<stop offset="0.2" stop-color="#A5ACAF"/>
<stop offset="0.3" stop-color="#98A0A4"/>
<stop offset="0.4" stop-color="#828A8F"/>
<stop offset="0.5" stop-color="#667075"/>
<stop offset="0.6" stop-color="#535C63"/>
<stop offset="0.7" stop-color="#475158"/>
<stop offset="0.8" stop-color="#434D54"/>
<stop offset="1" stop-color="#475157"/>
</linearGradient>
<linearGradient id="paint1_linear_103_873" x1="8.14092" y1="11.2196" x2="46.8125" y2="43.7061" gradientUnits="userSpaceOnUse">
<stop stop-color="#0B1F2A"/>
<stop offset="0.2" stop-color="#333F47"/>
<stop offset="0.5" stop-color="#81898D"/>
<stop offset="0.7" stop-color="#B3B8B8"/>
<stop offset="0.8" stop-color="#DEE0DD"/>
<stop offset="1" stop-color="#FBFBFB"/>
</linearGradient>
<linearGradient id="paint2_linear_103_873" x1="36.9003" y1="53.3343" x2="18.0793" y2="1.60129" gradientUnits="userSpaceOnUse">
<stop stop-color="#E1E3E1"/>
<stop offset="0.1" stop-color="#C1C5C4"/>
<stop offset="0.3" stop-color="#9BA1A2"/>
<stop offset="0.5" stop-color="#7D8487"/>
<stop offset="0.7" stop-color="#687074" stop-opacity="0"/>
<stop offset="0.8" stop-color="#5B6469" stop-opacity="0"/>
<stop offset="1" stop-color="#576065" stop-opacity="0"/>
</linearGradient>
<linearGradient id="paint3_linear_103_873" x1="15.6398" y1="6.96485" x2="39.3586" y2="48.041" gradientUnits="userSpaceOnUse">
<stop stop-color="#E1E3E1"/>
<stop offset="0.1" stop-color="#C1C5C4"/>
<stop offset="0.3" stop-color="#9BA1A2"/>
<stop offset="0.5" stop-color="#7D8487"/>
<stop offset="0.7" stop-color="#687074" stop-opacity="0"/>
<stop offset="0.8" stop-color="#5B6469" stop-opacity="0"/>
<stop offset="1" stop-color="#576065" stop-opacity="0"/>
</linearGradient>
<linearGradient id="paint4_linear_103_873" x1="38.1535" y1="33.9767" x2="37.4051" y2="35.2086" gradientUnits="userSpaceOnUse">
<stop stop-color="#27343C"/>
<stop offset="1" stop-color="#00111E" stop-opacity="0"/>
</linearGradient>
<linearGradient id="paint5_linear_103_873" x1="29.6336" y1="25.0818" x2="27.8838" y2="22.2681" gradientUnits="userSpaceOnUse">
<stop offset="0.1" stop-color="#02131F"/>
<stop offset="0.9" stop-color="#02131F" stop-opacity="0"/>
</linearGradient>
<linearGradient id="paint6_linear_103_873" x1="27.4925" y1="33.1725" x2="24.0666" y2="34.1518" gradientUnits="userSpaceOnUse">
<stop offset="0.2" stop-color="#02131F"/>
<stop offset="0.9" stop-color="#02131F" stop-opacity="0"/>
</linearGradient>
<linearGradient id="paint7_linear_103_873" x1="17.8938" y1="34.827" x2="17.6742" y2="34.2776" gradientUnits="userSpaceOnUse">
<stop stop-color="#02131F"/>
<stop offset="0.1" stop-color="#02131F"/>
<stop offset="1" stop-color="#02131F" stop-opacity="0"/>
</linearGradient>
<linearGradient id="paint8_linear_103_873" x1="29.4084" y1="14.2827" x2="29.2862" y2="14.2971" gradientUnits="userSpaceOnUse">
<stop offset="0.3" stop-color="#02131F"/>
<stop offset="0.8" stop-color="#02131F" stop-opacity="0"/>
</linearGradient>
<linearGradient id="paint9_linear_103_873" x1="29.414" y1="14.2708" x2="29.3253" y2="14.2823" gradientUnits="userSpaceOnUse">
<stop offset="0.4" stop-color="#27343C"/>
<stop offset="1" stop-color="#3B474E" stop-opacity="0"/>
</linearGradient>
<linearGradient id="paint10_linear_103_873" x1="5.28701" y1="31.1736" x2="16.7843" y2="37.808" gradientUnits="userSpaceOnUse">
<stop stop-color="#25323B" stop-opacity="0"/>
<stop offset="0.1" stop-color="#27343C"/>
</linearGradient>
<linearGradient id="paint11_linear_103_873" x1="27.4571" y1="32.1398" x2="27.4571" y2="28.0146" gradientUnits="userSpaceOnUse">
<stop offset="0.3" stop-color="#A5ABAF"/>
<stop offset="1" stop-color="#A5ABAF" stop-opacity="0"/>
</linearGradient>
<linearGradient id="paint12_linear_103_873" x1="40.9484" y1="1.9762" x2="40.9484" y2="54.3981" gradientUnits="userSpaceOnUse">
<stop stop-color="#6B7378"/>
<stop offset="0.2" stop-color="#333F47"/>
<stop offset="0.5" stop-color="#27343C"/>
<stop offset="0.8" stop-color="#333F47"/>
<stop offset="1" stop-color="#434D54"/>
</linearGradient>
<linearGradient id="paint13_linear_103_873" x1="44.2762" y1="6.68788" x2="34.8229" y2="20.5511" gradientUnits="userSpaceOnUse">
<stop offset="0.7" stop-color="#49545B"/>
<stop offset="0.8" stop-color="white" stop-opacity="0"/>
</linearGradient>
<clipPath id="clip0_103_873">
<rect width="55" height="55" fill="white"/>
</clipPath>
</defs>
</svg>
