<svg width="150" height="27" viewBox="0 0 150 27" fill="none" xmlns="http://www.w3.org/2000/svg">
<g clip-path="url(#clip0_103_845)">
<path d="M27.2044 1.23934L26.3639 2.47869C31.8932 4.73607 34.105 8.89672 34.105 13.2787C34.105 15.4918 33.5299 17.4836 32.3356 17.4836H17.9151C15.9245 17.4836 15.3495 16.7754 16.2342 15.0049C17.8266 11.9508 22.5597 5.97541 25.4792 2.3459C25.9216 1.81475 26.2754 0.97377 24.7272 0.57541C23.179 0.177049 20.6134 0 18.4901 0C7.60837 0 0 5.88689 0 13.5C0 20.4934 6.59098 27 18.4459 27C23.7098 27 30.1239 25.5393 33.7511 21.3787H30.6104C27.0717 24.6098 22.427 25.318 18.4459 25.318C8.89118 25.318 2.83102 20.3607 2.83102 13.5C2.83102 7.17049 9.68741 1.46066 18.3574 1.46066C19.3748 1.46066 19.7287 1.68197 18.6228 3.0541C16.4111 5.79836 12.4742 11.2426 10.6163 14.4295C8.62577 17.8377 10.6606 20.6262 15.1283 20.6262H33.2203C34.3262 20.6262 34.9897 20.0066 35.609 18.8115C36.1398 17.882 36.936 16.023 36.936 13.4557C36.9802 8.32131 33.1318 3.58525 27.2044 1.23934Z" fill="black"/>
<path d="M145.4 12.482H133.102C133.5 10.9328 134.739 9.82627 136.995 9.82627H148.761V7.17053H136.287C129.165 7.17053 127.485 12.2164 127.485 15.0935H142.701C144.78 15.0935 144.78 17.9263 142.79 17.9263C140.711 17.9263 125.981 17.9263 125.981 17.9263V7.21479H120.938V17.9705H112.533C110.277 17.9705 109.348 16.9082 109.348 15.2263C109.348 13.2345 109.348 7.21479 109.348 7.21479H101.253L93.9988 11.7738L87.7617 7.21479H69.7582C64.5385 7.21479 60.867 10.2689 60.4246 14.0754H63.7865C62.4152 14.9607 61.3978 16.4214 60.7785 18.0148H50.118C48.1274 18.0148 47.1542 16.9525 47.1542 15.005V7.21479H42.0672V13.8099C42.0672 18.0148 44.3674 20.6263 49.4987 20.6263H84.9749L92.2737 16.023L98.555 20.6263H106.031L96.299 13.5L104.217 8.4984V16.0673C104.217 18.4132 107.269 20.6263 110.012 20.6263H145.444C151.592 20.6263 151.548 12.482 145.4 12.482ZM84.046 17.9705H66.8387C67.0156 16.5099 67.7676 15.0935 70.1121 15.0935H80.7726V12.482H66.5733C66.8387 11.3755 67.9446 9.87053 70.4659 9.87053H81.7458V8.40988L89.8408 14.341L84.046 17.9705Z" fill="black"/>
</g>
<defs>
<clipPath id="clip0_103_845">
<rect width="150" height="27" fill="white"/>
</clipPath>
</defs>
</svg>
