<svg width="150" height="19" viewBox="0 0 150 19" fill="none" xmlns="http://www.w3.org/2000/svg">
<path d="M117.902 17.8705V15.5623L120.214 15.3175C121.008 15.2126 121.353 14.4782 121.457 14.3034L127.186 4.82605C127.669 4.09165 127.186 3.42719 126.599 3.35725L123.562 3.00753V0.664429H136.643C137.368 0.664429 137.851 1.189 138.127 1.60866L145.755 13.4291C146.341 14.3733 146.825 15.1077 147.584 15.2126L150 15.4924V17.8705H135.297V15.5274L137.161 15.2826C138.058 15.1777 138.783 14.758 138.058 13.6739L137.333 12.5898H126.91L126.116 13.9187C125.633 14.723 126.116 15.2126 126.875 15.3175L128.739 15.5623V17.9054H117.902M128.774 9.5822H135.366L132.052 4.26651L128.774 9.5822Z" fill="#ED1B2F"/>
<path d="M108.134 0.664429H91.3253V3.00753L93.4307 3.21736C94.2246 3.32227 94.5352 3.91679 94.5352 4.68617C94.5352 5.45554 94.5352 13.2542 94.5352 13.9537C94.5352 14.5831 94.2591 15.2126 93.5688 15.3175L91.2908 15.6323V17.9054H108.134C115.865 17.9054 119.213 14.0935 119.213 9.05762C119.213 4.51131 115.865 0.664429 108.134 0.664429ZM105.545 14.5831H101.196V3.95176H105.545C109.687 3.95176 111.413 4.93097 111.413 9.23248C111.413 13.6039 109.687 14.5831 105.545 14.5831Z" fill="#ED1B2F"/>
<path d="M0 17.8705H13.5987V15.5623L11.2862 15.2826C10.7685 15.2126 10.2163 14.8629 10.2163 13.7089V10.9461H20.6742V13.569C20.6742 14.3383 20.5361 15.0727 19.6387 15.1777L17.2572 15.4574V17.8355H30.856V15.4574L28.4399 15.1777C27.9567 15.1077 27.439 14.723 27.439 13.7438V4.86103C27.439 3.95176 27.7842 3.32227 28.4745 3.25233L30.856 2.97256V0.664429H17.2918V2.97256L19.6733 3.2873C20.4671 3.39222 20.7087 4.02171 20.7087 4.896V7.58881H10.2163V4.86103C10.2163 3.84685 10.5959 3.35725 11.3208 3.2873L13.6332 3.00753V0.664429H0.0345145V3.00753L2.31247 3.2873C3.20985 3.39222 3.45145 4.05668 3.41693 4.93097V13.6389C3.41693 14.6181 3.14082 15.2126 2.27796 15.2826L0 15.5973V17.8705Z" fill="#ED1B2F"/>
<path d="M31.5463 9.19754C31.5463 3.77694 35.8606 0 45.4556 0C54.9816 0 59.2959 3.77694 59.2959 9.19754C59.2959 14.758 54.9816 18.5 45.4556 18.5C35.8606 18.5 31.5463 14.7231 31.5463 9.19754ZM45.4211 3.32231C41.5555 3.32231 39.3465 4.79111 39.3465 9.23251C39.3465 13.7788 41.5555 15.2127 45.4211 15.2127C49.2867 15.2127 51.4956 13.7439 51.4956 9.23251C51.4956 4.75614 49.2867 3.32231 45.4211 3.32231Z" fill="#ED1B2F"/>
<path d="M60.0552 17.8705H70.9273V15.5623L68.5803 15.2826C67.9245 15.2126 67.5104 14.6531 67.5104 13.8487V5.10583L76.5532 17.171C76.8638 17.5557 77.416 17.8355 77.9683 17.8355H86.4933V4.82605C86.4933 4.19656 86.6659 3.39222 87.5288 3.25233L89.9103 2.97256V0.664429H79.0382V2.97256L81.4197 3.2873C82.2481 3.39222 82.4551 4.09165 82.4551 4.896V13.4291L73.4814 1.4338C73.1362 0.979173 72.7221 0.664429 72.0663 0.664429H60.0552V3.00753L62.3332 3.2873C63.127 3.39222 63.4377 3.81188 63.4377 4.93097V13.6389C63.4377 14.6881 63.1615 15.1777 62.2987 15.2826L60.0552 15.5623V17.8705Z" fill="#ED1B2F"/>
</svg>
