<svg width="75" height="74" viewBox="0 0 75 74" fill="none" xmlns="http://www.w3.org/2000/svg">
<g clip-path="url(#clip0_103_860)">
<path d="M37.6223 0C17.0856 0 0.436646 16.5195 0.436646 36.8949C0.436646 57.2712 17.0856 73.7908 37.6223 73.7908C58.1589 73.7908 74.8079 57.2712 74.8079 36.8949C74.8079 16.5205 58.1589 0 37.6223 0ZM72.3894 36.8949C72.3894 55.9459 56.8243 71.3908 37.6223 71.3908C18.4202 71.3908 2.85514 55.9459 2.85514 36.8949C2.85514 17.8449 18.4212 2.39897 37.6223 2.39897C56.8233 2.39897 72.3894 17.8449 72.3894 36.8949Z" fill="black"/>
<path d="M55.6449 21.2415C56.1493 21.7798 56.8777 22.648 57.2866 23.175L64.8164 18.4326C64.4404 17.9446 63.8404 17.2028 63.3935 16.6798L58.6243 19.8083L58.2986 20.0857L58.5411 19.7343L60.6473 15.5651L59.1575 14.0877L54.9534 16.1764L54.6 16.4168L54.8815 16.0942L58.0356 11.3651C57.4808 10.8966 56.9476 10.4672 56.2685 9.94731L51.488 17.4113C52.0942 17.8737 52.8925 18.5518 53.401 19.0141L57.901 16.6973L58.1887 16.4867L57.977 16.7733L55.6449 21.2415ZM38.5582 11.7812L40.6161 7.20929L40.7466 6.80347L40.7096 7.22573L40.9253 13.3367C41.6476 13.4045 42.3935 13.5042 43.1281 13.6254L42.7931 4.57505C41.7657 4.46203 40.7425 4.3819 39.7192 4.33875L37.6921 9.32984L37.6202 9.70073L37.5483 9.33087L35.5243 4.33875C34.5 4.3819 33.4767 4.46203 32.4493 4.57505L32.1154 13.6264C32.85 13.5031 33.5949 13.4066 34.3171 13.3367L34.5329 7.22573L34.4959 6.80347L34.6274 7.20827L36.6842 11.7812H38.5582ZM21.9175 18.9946C23.1072 17.7514 23.7801 16.3151 22.5914 14.9446C21.9442 14.2007 20.8572 14.0374 19.9562 14.4042L19.8668 14.4391L19.8955 14.361C20.0291 14.0076 20.1144 12.8795 19.1455 12.1007C18.6729 11.7206 18.0812 11.5798 17.4812 11.6405C16.3644 11.7535 15.5055 12.5107 13.1661 15.0987C12.4592 15.8795 11.4318 17.1124 10.8154 17.9096L17.2407 23.9579C19.3705 21.6196 20.2387 20.7494 21.9175 18.9946ZM13.5339 17.5151C14.8264 15.9442 16.202 14.5192 16.8257 13.9552C17.0229 13.7774 17.2366 13.5997 17.4966 13.5298C17.9188 13.4148 18.3544 13.7127 18.452 14.1422C18.5507 14.5737 18.2774 14.9836 17.9733 15.3216C17.289 16.0881 14.7791 18.6925 14.7791 18.6925L13.5329 17.5151H13.5339ZM16.05 19.8843C16.05 19.8843 18.4942 17.3199 19.2925 16.5C19.6089 16.1744 19.8123 15.9761 20.0312 15.8703C20.3127 15.7336 20.6209 15.7059 20.8972 15.8877C21.1675 16.0685 21.2928 16.3778 21.225 16.686C21.1438 17.0528 20.8418 17.4021 20.5931 17.6692L17.3527 21.11L16.05 19.8843Z" fill="black"/>
<path d="M59.6743 36.8948H37.6223V15.0154C49.8093 15.0154 59.6743 24.8034 59.6743 36.8948ZM37.6223 36.8948V58.7743C25.4353 58.7743 15.5702 48.9863 15.5702 36.8948H37.6223Z" fill="black"/>
<path d="M37.6223 15.0154V36.8948H15.5702C15.5702 24.8034 25.4353 15.0154 37.6223 15.0154ZM59.6743 36.8948C59.6743 48.9873 49.8093 58.7743 37.6223 58.7743V36.8948H59.6743Z" fill="#0066B1"/>
</g>
<defs>
<clipPath id="clip0_103_860">
<rect width="75" height="73.9726" fill="white"/>
</clipPath>
</defs>
</svg>
