<svg width="150" height="16" viewBox="0 0 150 16" fill="none" xmlns="http://www.w3.org/2000/svg">
<g clip-path="url(#clip0_103_858)">
<path d="M0 0.0438596C0.193744 0.77847 0.580668 1.4478 1.12057 1.9823C1.66047 2.5168 2.33366 2.89698 3.07018 3.08333H7.86404L8.10965 3.17982V15.2763H11.1009V3.19737L11.3728 3.10088H16.1711C16.9051 2.90952 17.5757 2.52765 18.1148 1.99392C18.6539 1.4602 19.0425 0.793539 19.2412 0.0614035V0.0307018H0V0.0438596ZM104.654 0.0263158H101.671V15.3114H115.329C115.976 15.0609 116.552 14.6557 117.006 14.1312C117.46 13.6067 117.779 12.9788 117.934 12.3026H104.645L104.654 0.0263158ZM81.7018 3.03509C83.2895 2.59649 84.6228 1.35965 84.943 0.0175439L68.2325 0.0438596V9.05702H81.9035V12.2281H71.1754C70.3576 12.4401 69.5941 12.8234 68.9355 13.3527C68.2769 13.882 67.7383 14.5451 67.3553 15.2982H84.8509V6.05702H71.1842V3.03509H81.7018ZM132.654 15.3026H135.618V9.15351H146.399V15.3026H149.36V6.08333L132.654 6.06579V15.3026ZM37.4342 3.07018H48.8377C49.5848 2.89046 50.2681 2.50914 50.8134 1.96777C51.3586 1.42639 51.7448 0.745744 51.9298 0L34.3421 0C34.5289 0.744883 34.9157 1.42457 35.4606 1.96566C36.0056 2.50675 36.688 2.88867 37.4342 3.07018ZM37.4342 9.10965H48.8377C49.5843 8.92904 50.2672 8.54741 50.8123 8.00618C51.3574 7.46496 51.7439 6.78479 51.9298 6.03947H34.3421C34.5298 6.78393 34.9169 7.46314 35.4617 8.00409C36.0065 8.54504 36.6884 8.92726 37.4342 9.10965ZM37.4342 15.3114H48.8377C49.5843 15.1308 50.2672 14.7492 50.8123 14.2079C51.3574 13.6667 51.7439 12.9865 51.9298 12.2412H34.3421C34.5294 12.9859 34.9163 13.6653 35.4612 14.2064C36.006 14.7474 36.6882 15.1295 37.4342 15.3114ZM135.289 3.07895H146.693C147.441 2.89949 148.125 2.51833 148.671 1.97698C149.217 1.43563 149.604 0.754849 149.789 0.00877193H132.197C132.383 0.754085 132.77 1.43425 133.315 1.97548C133.86 2.51671 134.543 2.89833 135.289 3.07895Z" fill="black"/>
</g>
<defs>
<clipPath id="clip0_103_858">
<rect width="150" height="15.3509" fill="white"/>
</clipPath>
</defs>
</svg>
