<svg width="44" height="44" viewBox="0 0 44 44" fill="none" xmlns="http://www.w3.org/2000/svg">
<path d="M9.16667 40.3333C8.15833 40.3333 7.29514 39.9743 6.57708 39.2562C5.85903 38.5382 5.5 37.675 5.5 36.6667V11C5.5 9.99166 5.85903 9.12846 6.57708 8.41041C7.29514 7.69235 8.15833 7.33332 9.16667 7.33332H11V3.66666H14.6667V7.33332H29.3333V3.66666H33V7.33332H34.8333C35.8417 7.33332 36.7049 7.69235 37.4229 8.41041C38.141 9.12846 38.5 9.99166 38.5 11V36.6667C38.5 37.675 38.141 38.5382 37.4229 39.2562C36.7049 39.9743 35.8417 40.3333 34.8333 40.3333H9.16667ZM9.16667 36.6667H34.8333V18.3333H9.16667V36.6667ZM9.16667 14.6667H34.8333V11H9.16667V14.6667ZM22 25.6667C21.4806 25.6667 21.0451 25.491 20.6938 25.1396C20.3424 24.7882 20.1667 24.3528 20.1667 23.8333C20.1667 23.3139 20.3424 22.8785 20.6938 22.5271C21.0451 22.1757 21.4806 22 22 22C22.5194 22 22.9549 22.1757 23.3062 22.5271C23.6576 22.8785 23.8333 23.3139 23.8333 23.8333C23.8333 24.3528 23.6576 24.7882 23.3062 25.1396C22.9549 25.491 22.5194 25.6667 22 25.6667ZM14.6667 25.6667C14.1472 25.6667 13.7118 25.491 13.3604 25.1396C13.009 24.7882 12.8333 24.3528 12.8333 23.8333C12.8333 23.3139 13.009 22.8785 13.3604 22.5271C13.7118 22.1757 14.1472 22 14.6667 22C15.1861 22 15.6215 22.1757 15.9729 22.5271C16.3243 22.8785 16.5 23.3139 16.5 23.8333C16.5 24.3528 16.3243 24.7882 15.9729 25.1396C15.6215 25.491 15.1861 25.6667 14.6667 25.6667ZM29.3333 25.6667C28.8139 25.6667 28.3785 25.491 28.0271 25.1396C27.6757 24.7882 27.5 24.3528 27.5 23.8333C27.5 23.3139 27.6757 22.8785 28.0271 22.5271C28.3785 22.1757 28.8139 22 29.3333 22C29.8528 22 30.2882 22.1757 30.6396 22.5271C30.991 22.8785 31.1667 23.3139 31.1667 23.8333C31.1667 24.3528 30.991 24.7882 30.6396 25.1396C30.2882 25.491 29.8528 25.6667 29.3333 25.6667ZM22 33C21.4806 33 21.0451 32.8243 20.6938 32.4729C20.3424 32.1215 20.1667 31.6861 20.1667 31.1667C20.1667 30.6472 20.3424 30.2118 20.6938 29.8604C21.0451 29.509 21.4806 29.3333 22 29.3333C22.5194 29.3333 22.9549 29.509 23.3062 29.8604C23.6576 30.2118 23.8333 30.6472 23.8333 31.1667C23.8333 31.6861 23.6576 32.1215 23.3062 32.4729C22.9549 32.8243 22.5194 33 22 33ZM14.6667 33C14.1472 33 13.7118 32.8243 13.3604 32.4729C13.009 32.1215 12.8333 31.6861 12.8333 31.1667C12.8333 30.6472 13.009 30.2118 13.3604 29.8604C13.7118 29.509 14.1472 29.3333 14.6667 29.3333C15.1861 29.3333 15.6215 29.509 15.9729 29.8604C16.3243 30.2118 16.5 30.6472 16.5 31.1667C16.5 31.6861 16.3243 32.1215 15.9729 32.4729C15.6215 32.8243 15.1861 33 14.6667 33ZM29.3333 33C28.8139 33 28.3785 32.8243 28.0271 32.4729C27.6757 32.1215 27.5 31.6861 27.5 31.1667C27.5 30.6472 27.6757 30.2118 28.0271 29.8604C28.3785 29.509 28.8139 29.3333 29.3333 29.3333C29.8528 29.3333 30.2882 29.509 30.6396 29.8604C30.991 30.2118 31.1667 30.6472 31.1667 31.1667C31.1667 31.6861 30.991 32.1215 30.6396 32.4729C30.2882 32.8243 29.8528 33 29.3333 33Z" fill="white"/>
</svg>
