<svg width="47" height="47" viewBox="0 0 47 47" fill="none" xmlns="http://www.w3.org/2000/svg">
<path d="M23.5 43.0833C20.791 43.0833 18.2451 42.5693 15.8625 41.5411C13.4799 40.513 11.4073 39.1177 9.64478 37.3552C7.88228 35.5927 6.48697 33.5201 5.45884 31.1375C4.43072 28.7549 3.91666 26.209 3.91666 23.5C3.91666 20.791 4.43072 18.2451 5.45884 15.8625C6.48697 13.4799 7.88228 11.4073 9.64478 9.64478C11.4073 7.88228 13.4799 6.48697 15.8625 5.45884C18.2451 4.43072 20.791 3.91666 23.5 3.91666H25.4583V20.1219C26.0458 20.4809 26.5191 20.946 26.8781 21.5172C27.2371 22.0884 27.4167 22.7493 27.4167 23.5C27.4167 24.5771 27.0331 25.4991 26.2661 26.2661C25.4991 27.0331 24.5771 27.4167 23.5 27.4167C22.4229 27.4167 21.5009 27.0331 20.7338 26.2661C19.9668 25.4991 19.5833 24.5771 19.5833 23.5C19.5833 22.7493 19.7628 22.0802 20.1219 21.4927C20.4809 20.9052 20.9542 20.4483 21.5417 20.1219V15.9114C19.8444 16.3684 18.441 17.2904 17.3312 18.6776C16.2215 20.0647 15.6667 21.6722 15.6667 23.5C15.6667 25.6542 16.4337 27.4983 17.9677 29.0323C19.5017 30.5663 21.3458 31.3333 23.5 31.3333C25.6542 31.3333 27.4983 30.5663 29.0323 29.0323C30.5663 27.4983 31.3333 25.6542 31.3333 23.5C31.3333 22.325 31.0967 21.2397 30.6234 20.2443C30.1502 19.2488 29.5055 18.3757 28.6896 17.625L31.4802 14.8344C32.6226 15.9114 33.5364 17.1925 34.2219 18.6776C34.9073 20.1627 35.25 21.7701 35.25 23.5C35.25 26.7639 34.1076 29.5382 31.8229 31.8229C29.5382 34.1076 26.7639 35.25 23.5 35.25C20.2361 35.25 17.4618 34.1076 15.1771 31.8229C12.8924 29.5382 11.75 26.7639 11.75 23.5C11.75 20.5625 12.6802 18.0085 14.5406 15.838C16.401 13.6675 18.7347 12.3538 21.5417 11.8969V7.93124C17.6576 8.42082 14.4019 10.1344 11.7745 13.0719C9.14704 16.0094 7.83332 19.4854 7.83332 23.5C7.83332 27.8736 9.35103 31.5781 12.3864 34.6135C15.4219 37.6489 19.1264 39.1667 23.5 39.1667C27.8736 39.1667 31.5781 37.6489 34.6135 34.6135C37.6489 31.5781 39.1667 27.8736 39.1667 23.5C39.1667 21.2479 38.726 19.1427 37.8448 17.1844C36.9635 15.226 35.7559 13.5288 34.2219 12.0927L37.0125 9.30207C38.8729 11.0972 40.3498 13.2106 41.4432 15.6422C42.5366 18.0738 43.0833 20.693 43.0833 23.5C43.0833 26.209 42.5693 28.7549 41.5411 31.1375C40.513 33.5201 39.1177 35.5927 37.3552 37.3552C35.5927 39.1177 33.5201 40.513 31.1375 41.5411C28.7549 42.5693 26.209 43.0833 23.5 43.0833Z" fill="white"/>
</svg>
