<svg width="41" height="41" viewBox="0 0 41 41" fill="none" xmlns="http://www.w3.org/2000/svg">
<path d="M13.45 30.2917L20.5 23.2417L27.55 30.2917L30.2917 27.55L23.2417 20.5L30.2917 13.45L27.55 10.7083L20.5 17.7583L13.45 10.7083L10.7083 13.45L17.7583 20.5L10.7083 27.55L13.45 30.2917ZM20.5 40.0833C17.791 40.0833 15.2451 39.5693 12.8625 38.5411C10.4799 37.513 8.40728 36.1177 6.64478 34.3552C4.88228 32.5927 3.48697 30.5201 2.45884 28.1375C1.43072 25.7549 0.916656 23.209 0.916656 20.5C0.916656 17.791 1.43072 15.2451 2.45884 12.8625C3.48697 10.4799 4.88228 8.40728 6.64478 6.64478C8.40728 4.88228 10.4799 3.48697 12.8625 2.45884C15.2451 1.43072 17.791 0.916656 20.5 0.916656C23.209 0.916656 25.7549 1.43072 28.1375 2.45884C30.5201 3.48697 32.5927 4.88228 34.3552 6.64478C36.1177 8.40728 37.513 10.4799 38.5411 12.8625C39.5693 15.2451 40.0833 17.791 40.0833 20.5C40.0833 23.209 39.5693 25.7549 38.5411 28.1375C37.513 30.5201 36.1177 32.5927 34.3552 34.3552C32.5927 36.1177 30.5201 37.513 28.1375 38.5411C25.7549 39.5693 23.209 40.0833 20.5 40.0833ZM20.5 36.1667C24.8736 36.1667 28.5781 34.6489 31.6135 31.6135C34.6489 28.5781 36.1667 24.8736 36.1667 20.5C36.1667 16.1264 34.6489 12.4219 31.6135 9.38645C28.5781 6.35103 24.8736 4.83332 20.5 4.83332C16.1264 4.83332 12.4219 6.35103 9.38645 9.38645C6.35103 12.4219 4.83332 16.1264 4.83332 20.5C4.83332 24.8736 6.35103 28.5781 9.38645 31.6135C12.4219 34.6489 16.1264 36.1667 20.5 36.1667Z" fill="white"/>
</svg>
