<svg width="47" height="47" viewBox="0 0 47 47" fill="none" xmlns="http://www.w3.org/2000/svg">
<path d="M21.5417 41.125V37.2083H37.2083V23.3042C37.2083 19.4854 35.8783 16.246 33.2182 13.5859C30.5581 10.9259 27.3187 9.59583 23.5 9.59583C19.6812 9.59583 16.4418 10.9259 13.7818 13.5859C11.1217 16.246 9.79166 19.4854 9.79166 23.3042V35.25H7.83332C6.75624 35.25 5.83419 34.8665 5.06718 34.0995C4.30016 33.3325 3.91666 32.4104 3.91666 31.3333V27.4167C3.91666 26.7313 4.08801 26.0866 4.43072 25.4828C4.77343 24.879 5.25485 24.3976 5.87499 24.0385L6.02186 21.4438C6.28298 19.2243 6.92759 17.1681 7.95572 15.275C8.98384 13.3819 10.2731 11.7337 11.8234 10.3302C13.3738 8.92674 15.1526 7.83333 17.1599 7.05C19.1672 6.26667 21.2805 5.875 23.5 5.875C25.7194 5.875 27.8246 6.26667 29.8156 7.05C31.8066 7.83333 33.5854 8.91858 35.1521 10.3057C36.7187 11.6929 38.008 13.333 39.0198 15.226C40.0316 17.1191 40.6844 19.1753 40.9781 21.3948L41.125 23.9406C41.7451 24.2344 42.2266 24.675 42.5693 25.2625C42.912 25.85 43.0833 26.4701 43.0833 27.1229V31.6271C43.0833 32.2799 42.912 32.9 42.5693 33.4875C42.2266 34.075 41.7451 34.5156 41.125 34.8094V37.2083C41.125 38.2854 40.7415 39.2075 39.9745 39.9745C39.2075 40.7415 38.2854 41.125 37.2083 41.125H21.5417ZM17.625 27.4167C17.0701 27.4167 16.605 27.229 16.2297 26.8536C15.8543 26.4783 15.6667 26.0132 15.6667 25.4583C15.6667 24.9035 15.8543 24.4384 16.2297 24.063C16.605 23.6877 17.0701 23.5 17.625 23.5C18.1799 23.5 18.645 23.6877 19.0203 24.063C19.3956 24.4384 19.5833 24.9035 19.5833 25.4583C19.5833 26.0132 19.3956 26.4783 19.0203 26.8536C18.645 27.229 18.1799 27.4167 17.625 27.4167ZM29.375 27.4167C28.8201 27.4167 28.355 27.229 27.9797 26.8536C27.6043 26.4783 27.4167 26.0132 27.4167 25.4583C27.4167 24.9035 27.6043 24.4384 27.9797 24.063C28.355 23.6877 28.8201 23.5 29.375 23.5C29.9298 23.5 30.395 23.6877 30.7703 24.063C31.1456 24.4384 31.3333 24.9035 31.3333 25.4583C31.3333 26.0132 31.1456 26.4783 30.7703 26.8536C30.395 27.229 29.9298 27.4167 29.375 27.4167ZM11.7989 24.3813C11.5705 20.9215 12.6149 17.9514 14.9323 15.4708C17.2496 12.9903 20.1382 11.75 23.5979 11.75C26.5028 11.75 29.0568 12.672 31.2599 14.5161C33.463 16.3602 34.793 18.7184 35.25 21.5906C32.2799 21.558 29.5463 20.7583 27.0495 19.1917C24.5526 17.625 22.6351 15.5035 21.2969 12.8271C20.7746 15.4382 19.6731 17.7637 17.9922 19.8036C16.3113 21.8436 14.2469 23.3694 11.7989 24.3813Z" fill="white"/>
</svg>
